<svg id="Layer_1" data-name="Layer 1" xmlns="http://www.w3.org/2000/svg" xmlns:xlink="http://www.w3.org/1999/xlink" viewBox="0 0 121 116"><defs><style>.cls-1{fill:#75a441;}.cls-2{fill:#aad05a;}.cls-3{fill:#de252c;}.cls-4{clip-path:url(#clip-path);}.cls-5{fill:#5d8e3e;}.cls-13,.cls-5,.cls-6{opacity:0.5;}.cls-6{fill:#dce79d;}.cls-7{clip-path:url(#clip-path-2);}.cls-8{fill:#c4db76;}.cls-9{clip-path:url(#clip-path-3);}.cls-10{clip-path:url(#clip-path-4);}.cls-11{fill:#f19e97;stroke:#f19e97;opacity:0.25;}.cls-11,.cls-13{stroke-miterlimit:10;stroke-width:0.42px;}.cls-12{fill:#faddc8;}.cls-13{fill:#c42129;stroke:#c42129;}</style><clipPath id="clip-path"><path class="cls-1" d="M55.29,61.53c.88-3.34,1.3-7.05,2.1-10.12s.15-8.43-.12-10.69,2-8.09,2.22-9.7.36-4.13-.42-2.05-2.55,4.76-2,2.74,3.41-5.22,2.5-5.39-1.91.49-3.61.86-3.1,2.14-2.9.6a26.53,26.53,0,0,1,1.78-7c1.15-2.63,1.73-3.24,1.23-5.09s-2.51-4.58-3.37-6.16-2.14-1.34-2.66-.37-.33,1.18-1.4,1.92-1.38,1.15-1.58,2.9S45.15,16.62,46,19s2.46,4.38,2.34,5.78-1.26,3.75-.63,6,2.43,4.94,3.89,5.48,1.89.13,2.41,1.42a18.52,18.52,0,0,1,1.78,7.65,63.89,63.89,0,0,1-.21,8.15c-.27,1.95-1.69,7.89-1.69,7.89Z"/></clipPath><clipPath id="clip-path-2"><path class="cls-2" d="M56.89,69.37c1.59-.78,2.36-2.11,4.09-3.93s3.42-5.31,4.84-7.14,5.64-6.27,9.66-7.91,9.76-4.88,12.1-6.06,4.52-1.2,6.62-1.54,3.85.23,6.25.21,4.41-.79,4.59.15-.49,2.18-.32,3.33a11.38,11.38,0,0,0,.43,2.62A1.79,1.79,0,0,0,108,50c1.28-.9,3-2.92,2.56-4.71a36.52,36.52,0,0,0-3.81-7.54,11.51,11.51,0,0,0-3.44-3.35c-1.33-.78-4.57-3.6-6.65-3.78s-5.26,1.39-6.94,1.65-3.75-.13-4.34,1.83-1,2.68-1.85,2.13-1.28-2.24-2.36-1S78,43.56,77,44.93s-1.5,2.67-3.33,4-3.92,2.26-5.45,3.89a36.18,36.18,0,0,0-3.88,4.65c-1,1.58-4.5,6-5.52,7.34a26.22,26.22,0,0,1-3.34,3.12Z"/></clipPath><clipPath id="clip-path-3"><path class="cls-1" d="M55.5,67.94c2.66-2.37,2.15-1.2,3.12-5.17s1.71-6.83,3.79-10,5.88-7.4,6-10.48,1.79-2.9,3.21-5.52.52-2.86,1.6-5.78a15.49,15.49,0,0,0,.85-8.27c-.48-2.4-1.24-2.92.39-3.36s1.72-.78,4.09-.35,5.44,3.49,5.07,1.79a7.42,7.42,0,0,0-4.54-4.73c-2.23-.7-5.59.87-8.57,1.75a8.58,8.58,0,0,0-6,6.06c-.59,2.72-.22,4.28-1.12,6.14s0,3.38,1.39,4.55,3.9,3.09,3.51,4.27-1,3.69-1.73,5.21a46.24,46.24,0,0,1-4.8,6.8,37.71,37.71,0,0,0-4.73,9c-.57,2.09-3.46,8.53-3.46,8.53Z"/></clipPath><clipPath id="clip-path-4"><path class="cls-3" d="M58,68.81c-.52-.55-.59-.91-1.12-1.2s-.71.16-1.22-.39-.5-1.08-1.12-1.11-1,.77-2.32.46-5.38-1.16-8.88.05-2.95.61-3.86,1.29-5.64,4.16-6.46,9.81.35,10.66,2.38,13.57A86.15,86.15,0,0,0,41,98c1.28,1.56,1.63,4.5-.12,6.12a12,12,0,0,1-8,2.48c-2.39-.26.31,1.34,1.72,1.57a14,14,0,0,0,5.17-.45,9.89,9.89,0,0,0,5.53-3.45c1.48-1.9,1.28-3.68,2.18-4.09s8-1.68,11.14-4A17.6,17.6,0,0,0,66,83.1a16.29,16.29,0,0,0-4.73-12.23A17.08,17.08,0,0,0,58,68.81Z"/></clipPath></defs><title>radish</title><path class="cls-1" d="M55.29,61.53c.88-3.34,1.3-7.05,2.1-10.12s.15-8.43-.12-10.69,2-8.09,2.22-9.7.36-4.13-.42-2.05-2.55,4.76-2,2.74,3.41-5.22,2.5-5.39-1.91.49-3.61.86-3.1,2.14-2.9.6a26.53,26.53,0,0,1,1.78-7c1.15-2.63,1.73-3.24,1.23-5.09s-2.51-4.58-3.37-6.16-2.14-1.34-2.66-.37-.33,1.18-1.4,1.92-1.38,1.15-1.58,2.9S45.15,16.62,46,19s2.46,4.38,2.34,5.78-1.26,3.75-.63,6,2.43,4.94,3.89,5.48,1.89.13,2.41,1.42a18.52,18.52,0,0,1,1.78,7.65,63.89,63.89,0,0,1-.21,8.15c-.27,1.95-1.69,7.89-1.69,7.89Z"/><g class="cls-4"><path class="cls-5" d="M50.06,6.66c.29,3.81-.59,4.9.58,7.82S52.52,19,51.86,22s-1.57,4.72-.72,6.72S54,31.68,54.4,34a53.68,53.68,0,0,1,.1,9.43c-.15.2-8.41-4.72-8.41-4.72L42,24l1.26-12.4,4-5.63Z"/><path class="cls-6" d="M58.46,40.69c-1,1.48-1.33,4-1.54,6s-.6,7.29-1,8.34L53,62.93l3.41.75S58.82,46.75,58.9,46.4,58.46,40.69,58.46,40.69Z"/><path class="cls-5" d="M60.88,27.42c-.89.17-3.46,4-3.9,4.92a9.49,9.49,0,0,0-1.27,4.6c.07,2,2.91,5.38,3,6s2-6,2-6Z"/></g><path class="cls-2" d="M56.89,69.37c1.59-.78,2.36-2.11,4.09-3.93s3.42-5.31,4.84-7.14,5.64-6.27,9.66-7.91,9.76-4.88,12.1-6.06,4.52-1.2,6.62-1.54,3.85.23,6.25.21,4.41-.79,4.59.15-.49,2.18-.32,3.33a11.38,11.38,0,0,0,.43,2.62A1.79,1.79,0,0,0,108,50c1.28-.9,3-2.92,2.56-4.71a36.52,36.52,0,0,0-3.81-7.54,11.51,11.51,0,0,0-3.44-3.35c-1.33-.78-4.57-3.6-6.65-3.78s-5.26,1.39-6.94,1.65-3.75-.13-4.34,1.83-1,2.68-1.85,2.13-1.28-2.24-2.36-1S78,43.56,77,44.93s-1.5,2.67-3.33,4-3.92,2.26-5.45,3.89a36.18,36.18,0,0,0-3.88,4.65c-1,1.58-4.5,6-5.52,7.34a26.22,26.22,0,0,1-3.34,3.12Z"/><g class="cls-7"><path class="cls-6" d="M84.12,34.53c-.15,2.32-.79,2.58-1.79,5.07A16.26,16.26,0,0,1,80.21,44c-1.33,2.07-2,3.25-3.17,3.9l-3.28,1.86c1.14-.6,4.09-2.39,5.52-3s5.06-2.22,6.57-3.15a93.79,93.79,0,0,1,8.68-5.12c2.64-1.17,3.77-1.39,6.41-.34a57.44,57.44,0,0,1,6.49,3.45c1,.74,3.19,9.67,3.19,9.67s-7.92,3.39-8.21,3.59-25.9,1-26.34,1.35S66.35,59,65.74,60.41s-8,13-8,13L53,71.86l3.07-10.8L68,50.36s8.82-9.33,9.12-10,3.54-11.13,3.54-11.13Z"/><path class="cls-1" d="M103.14,33.35c1.37,3.14,2.18,2.85,2,6.33s-.4,3.5-1.46,5.64-.2,10-.2,10l6.76-.26,4.56-8.14-3.69-11.38-5.56-3.77Z"/></g><path class="cls-8" d="M55.69,67.22c.85-1,.23-3.49.37-5.52s.47-3.43-.51-5.64-3.69-7.16-5.07-8.12S49,46.27,47.34,45.23s-2,0-3.44-2.29-2.14-3.1-3.68-3.29-3.83.92-5.59,1.14-3.61.51-2.28.77S39,48,39.83,48.91s1.43,1.53,3.14.81,2-2,3.37-1.85a3.46,3.46,0,0,1,3.17,1.87c1.14,1.58,3.64,4.41,4,7.8s.56,6.41.17,7.52-2.26,2.18-2.26,2.18l2.79.72Z"/><path class="cls-1" d="M55.5,67.94c2.66-2.37,2.15-1.2,3.12-5.17s1.71-6.83,3.79-10,5.88-7.4,6-10.48,1.79-2.9,3.21-5.52.52-2.86,1.6-5.78a15.49,15.49,0,0,0,.85-8.27c-.48-2.4-1.24-2.92.39-3.36s1.72-.78,4.09-.35,5.44,3.49,5.07,1.79a7.42,7.42,0,0,0-4.54-4.73c-2.23-.7-5.59.87-8.57,1.75a8.58,8.58,0,0,0-6,6.06c-.59,2.72-.22,4.28-1.12,6.14s0,3.38,1.39,4.55,3.9,3.09,3.51,4.27-1,3.69-1.73,5.21a46.24,46.24,0,0,1-4.8,6.8,37.71,37.71,0,0,0-4.73,9c-.57,2.09-3.46,8.53-3.46,8.53Z"/><g class="cls-9"><path class="cls-5" d="M71.33,15.89c-2.18,2.5-3.37,6-2.54,8.42a18,18,0,0,1,.77,6.49c0,2.18-.09,4.57-.21,5.9a49.11,49.11,0,0,1-1.29,4.95c-.33,1.46-4.36,4.21-4.36,4.21L58.76,36l1.93-13.15,5.63-6.35Z"/><path class="cls-6" d="M63.71,49.73a37.53,37.53,0,0,0-3.85,5.56C59.25,56.75,58.12,59,58.09,60s1.94.48,1.94.48,6.7-8.31,6.54-8.86S64.52,48.7,63.71,49.73Z"/></g><path class="cls-3" d="M58,68.81c-.52-.55-.59-.91-1.12-1.2s-.71.16-1.22-.39-.5-1.08-1.12-1.11-1,.77-2.32.46-5.38-1.16-8.88.05-2.95.61-3.86,1.29-5.64,4.16-6.46,9.81.35,10.66,2.38,13.57A86.15,86.15,0,0,0,41,98c1.28,1.56,1.63,4.5-.12,6.12a12,12,0,0,1-8,2.48c-2.39-.26.31,1.34,1.72,1.57a14,14,0,0,0,5.17-.45,9.89,9.89,0,0,0,5.53-3.45c1.48-1.9,1.28-3.68,2.18-4.09s8-1.68,11.14-4A17.6,17.6,0,0,0,66,83.1a16.29,16.29,0,0,0-4.73-12.23A17.08,17.08,0,0,0,58,68.81Z"/><g class="cls-10"><path class="cls-11" d="M66.68,91c.14-4.2-5.32-5.33-8.51-3a82.66,82.66,0,0,1-7.7,4.71S48,95.17,45.82,93.77s-2.1-.87-4.34-3-2.86-2-2.68-4.53.88-2.54-.48-4.27-.47.87-2.21-2.65a12,12,0,0,0-5.78-5.08L28.46,92.74s6.38,9.37,7.16,11.42a10.47,10.47,0,0,1,.77,3.31s-.12,3.55,1.28,4,7.9-2.57,10.11-5,9-6.18,9-6.18S66.62,92.7,66.68,91Z"/><path class="cls-11" d="M52.59,72.17s-2.61,1.15-4.08-.23-2-4.15-3.29-2.42.7,3,.55,4.9-.45,2.65,2.46,3.28,4.48,1.22,5.32.27S54,71.77,52.59,72.17Z"/><path class="cls-12" d="M33.73,109.62c1.58-2.07,5.86-1.83,4.55-3a7.23,7.23,0,0,0-6.26-1.1c-1.71.74-3.7-.84-2.68.53s4.23,3.42,5.18,4.08Z"/><path class="cls-13" d="M50.44,64.91c-.37,3.09.85,3.76,3,5s4.91,1.5,6.06,4.29a31.61,31.61,0,0,1,1.75,6.1l.31,1.34S61.29,85,65.87,86s6-1.39,6-1.66-.9-15.2-.9-15.2S55.08,56.37,55,56.81,50.44,64.91,50.44,64.91Z"/></g><path class="cls-12" d="M33.82,107.12a15,15,0,0,1-4.1-.31A12,12,0,0,1,26,104.94c-1.14-.77-2.17-1.61-3.29-2.25a14.47,14.47,0,0,0-3.55-1.48,36.94,36.94,0,0,0-3.87-.89,6.62,6.62,0,0,0-3.64-.14,8.68,8.68,0,0,0-1.64.89,1.71,1.71,0,0,0-.54.6c-.14.26-.24.59-.41.92a3,3,0,0,1-3.7,1.46,2.85,2.85,0,0,0,3.05-1.74c.1-.28.17-.61.3-1a2.68,2.68,0,0,1,.69-1,8.93,8.93,0,0,1,1.81-1.21,4.61,4.61,0,0,1,2.24-.41,18.8,18.8,0,0,1,2.08.25,34,34,0,0,1,4,.85,15.24,15.24,0,0,1,3.86,1.7,35.37,35.37,0,0,1,3.25,2.52,13.12,13.12,0,0,0,3.28,2.09A21.2,21.2,0,0,0,33.82,107.12Z"/><path class="cls-12" d="M33.14,107a9.38,9.38,0,0,1-4.41-1.43,5.16,5.16,0,0,1-1.65-1.88c-.38-.73-.62-1.41-.93-2.1-.54-1.38-1.08-2.82-1.53-4.2a1.81,1.81,0,0,0-1.23-1.26,8.47,8.47,0,0,0-2.15-.37,5.36,5.36,0,0,1,2.31-.32,2.67,2.67,0,0,1,1.23.45,2.8,2.8,0,0,1,.86,1c.7,1.39,1.27,2.74,1.85,4.13.27.69.53,1.43.8,2a4.74,4.74,0,0,0,1.14,1.6A17.84,17.84,0,0,0,33.14,107Z"/><path class="cls-12" d="M34,107.19a17.76,17.76,0,0,1-6.63-.77A46.88,46.88,0,0,1,21.11,104a6.47,6.47,0,0,0-1.39-.54,1.92,1.92,0,0,0-1.2.12,7.61,7.61,0,0,0-2.37,1.8,8,8,0,0,0-.92,1.24,8.47,8.47,0,0,1-.47.75,1.65,1.65,0,0,1-.87.56,6.31,6.31,0,0,1-3.36.13,7.67,7.67,0,0,0,3.1-.78,1,1,0,0,0,.46-.38c.09-.16.18-.44.3-.71a7.88,7.88,0,0,1,.89-1.51,7.38,7.38,0,0,1,1.19-1.31,6.85,6.85,0,0,1,1.5-1,3.22,3.22,0,0,1,2-.26,8,8,0,0,1,1.7.61C25.7,104.55,29.57,106.44,34,107.19Z"/><path class="cls-12" d="M34.36,107.41c-1.16.23-2.32.21-3.37.35a3.61,3.61,0,0,0-1.37.42,9,9,0,0,0-1.21.93,7.51,7.51,0,0,1-1.52,1,3.21,3.21,0,0,1-2,.26,3,3,0,0,1-2.52-2.49A3.29,3.29,0,0,0,25,109.31a3.79,3.79,0,0,0,2.49-1.3A6.41,6.41,0,0,1,29,107a4.25,4.25,0,0,1,1.92-.32,9,9,0,0,1,1.75.28A16.73,16.73,0,0,1,34.36,107.41Z"/></svg>